<?xml version="1.0"?><svg id="Livello_2" data-name="Livello 2" xmlns="http://www.w3.org/2000/svg" viewBox="0 0 67.13 60.78">
  <defs>
    
  </defs>
  <g id="Layer_2" data-name="Layer 2">
    <g>
      <path fill="currentColor" d="M12.82,25.81c-1.61,0-2.92-1.31-2.92-2.92v-12.36c0-1.61,1.31-2.92,2.92-2.92s2.92,1.31,2.92,2.92v12.36c0,1.61-1.31,2.92-2.92,2.92Z"></path>
      <g>
        <path fill="currentColor" d="M64.21,36.57c-.75,0-1.49-.29-2.07-.86L33.49,7.05,4.99,35.55c-1.14,1.14-2.99,1.14-4.13,0-1.14-1.14-1.14-2.99,0-4.13L31.42.86c1.14-1.14,2.99-1.14,4.13,0l30.72,30.72c1.14,1.14,1.14,2.99,0,4.13-.57.57-1.32.86-2.07.86Z"></path>
        <path fill="currentColor" d="M49.93,60.78H17.2c-4.03,0-7.31-3.28-7.31-7.31v-13.62c0-1.61,1.31-2.92,2.92-2.92s2.92,1.31,2.92,2.92v13.62c0,.81.66,1.46,1.46,1.46h32.72c.81,0,1.46-.66,1.46-1.46v-13.62c0-1.61,1.31-2.92,2.92-2.92s2.92,1.31,2.92,2.92v13.62c0,4.03-3.28,7.31-7.31,7.31Z"></path>
      </g>
    </g>
  </g>
</svg>