<?xml version="1.0"?><svg id="Livello_2" data-name="Livello 2" xmlns="http://www.w3.org/2000/svg" viewBox="0 0 44.03 45.09">
  <defs>
    
  </defs>
  <g id="Layer_2" data-name="Layer 2">
    <g>
      <path class="cls-1" d="M19.31,10.34c.21.2,1.23,2.42,1.57,2.96,1.48,2.34,3.77,4.8,6.05,6.37.76.52,3.62,1.86,3.91,2.21.27.33.32.98.14,1.37l-13.16,13.28c-.36.16-.7.42-1.08.52-1.54.41-9.05,1.45-10.41,1.27-2.69-.35-3.62-2.8-3.47-5.22.1-1.61.88-7.81,1.38-9.09.12-.3.52-.76.75-1.03,3.56-4.3,8.72-8.14,12.42-12.42.47-.52,1.37-.73,1.91-.22Z"></path>
      <path class="cls-1" d="M30.31.05c5.09-.7,11.53,5.68,10.82,10.82-.5,3.65-3.63,5.47-5.72,8.12-1,.86-3.18-.2-4.24-.73-2.62-1.31-5.38-3.7-7-6.13-.76-1.14-2.81-4.84-2.25-6.09.11-.25,2.52-2.58,2.92-2.93,1.52-1.35,3.37-2.77,5.46-3.06Z"></path>
      <path class="cls-1" d="M43.61,42.3c.91.98.27,2.7-1.09,2.79H1.51c-1.85-.22-2.05-2.67-.34-3.19,13.84-.32,27.84-.32,41.68,0,.24.1.58.21.75.4Z"></path>
    </g>
  </g>
</svg>